<svg version="1.1" xmlns="http://www.w3.org/2000/svg" xmlns:xlink="http://www.w3.org/1999/xlink" width="859" height="451" viewBox="0 0 859 451"><defs/><g transform="matrix(1,0,0,1,0,0)"><g><g><g><path fill="none" stroke="#d3d3d3" paint-order="fill stroke markers" d=" M 0 0 L 1200 0" stroke-miterlimit="10" stroke-opacity="0.8" stroke-dasharray="5"/></g><g><path fill="none" stroke="#d3d3d3" paint-order="fill stroke markers" d=" M 0 0 L 0 800" stroke-miterlimit="10" stroke-opacity="0.8" stroke-dasharray="5"/></g></g><g id="_5AD004AF-0065-4E43-ADDD-1BFC9FF1705D" transform="matrix(1,0,0,1,708,350)"><g><path fill="none" stroke="none"/></g><g transform="matrix(0.9345794392523364,0,0,0.8771929824561403,0,0)"><g transform="matrix(1,0,0,1,0,0)"><path fill="none" stroke="#000000" id="_5AD004AF-0065-4E43-ADDD-1BFC9FF1705D?shapeType=BORDER&amp;renderType=STROKE" paint-order="fill stroke markers" d=" M 0 0 M 1.5 30 C 1.5 14.3 14.3 1.5 30 1.5 L 80 1.5 C 95.7 1.5 108.5 14.3 108.5 30 C 108.5 45.7 95.7 58.5 80 58.5 L 30 58.5 C 14.3 58.5 1.5 45.7 1.5 30 Z" stroke-miterlimit="10" stroke-width="1.5" stroke-dasharray=""/></g></g><g transform="matrix(1,0,0,1,22.773773193359375,18.5)"><text fill="#000000" stroke="none" font-family="Open Sans" font-size="10pt" font-style="normal" font-weight="normal" text-decoration="normal" x="27.226226806640625" y="10.4" text-anchor="middle" dominant-baseline="alphabetic">Violation</text></g></g><g id="_C6BE26A9-AD9A-4774-AE3D-60F42CB0A0B1" transform="matrix(1,0,0,1,709,210)"><g><path fill="none" stroke="none"/></g><g transform="matrix(1,0,0,1,0,0)"><path fill="none" stroke="#000000" id="_C6BE26A9-AD9A-4774-AE3D-60F42CB0A0B1?shapeType=BORDER&amp;renderType=STROKE" paint-order="fill stroke markers" d=" M 0 0 L 100 0 L 100 50 L 0 50 L 0 0 Z Z" stroke-miterlimit="10" stroke-width="1.5" stroke-dasharray=""/></g><g transform="matrix(1,0,0,1,37.044273376464844,18.5)"><text fill="#000000" stroke="none" font-family="Open Sans" font-size="10pt" font-style="normal" font-weight="normal" text-decoration="normal" x="12.955726623535156" y="10.4" text-anchor="middle" dominant-baseline="alphabetic">Fine</text></g></g><g id="_AD00C174-CACC-4393-9715-3D8E3F604BEA" transform="matrix(1,0,0,1,369,344)"><g><path fill="none" stroke="none"/></g><g transform="matrix(0.9345794392523364,0,0,0.8771929824561403,0,0)"><g transform="matrix(1,0,0,1,0,0)"><path fill="none" stroke="#000000" id="_AD00C174-CACC-4393-9715-3D8E3F604BEA?shapeType=BORDER&amp;renderType=STROKE" paint-order="fill stroke markers" d=" M 0 0 M 1.5 30 C 1.5 14.3 14.3 1.5 30 1.5 L 80 1.5 C 95.7 1.5 108.5 14.3 108.5 30 C 108.5 45.7 95.7 58.5 80 58.5 L 30 58.5 C 14.3 58.5 1.5 45.7 1.5 30 Z" stroke-miterlimit="10" stroke-width="1.5" stroke-dasharray=""/></g></g><g transform="matrix(1,0,0,1,30.935768127441406,18.5)"><text fill="#000000" stroke="none" font-family="Open Sans" font-size="10pt" font-style="normal" font-weight="normal" text-decoration="normal" x="19.064231872558594" y="10.4" text-anchor="middle" dominant-baseline="alphabetic">Driver</text></g></g><g id="_8DAB0DEE-7279-453C-9A22-9A08678A6CD8" transform="matrix(1,0,0,1,534,83)"><g><path fill="none" stroke="none"/></g><g transform="matrix(1,0,0,1,0,0)"><path fill="none" stroke="#000000" id="_8DAB0DEE-7279-453C-9A22-9A08678A6CD8?shapeType=BORDER&amp;renderType=STROKE" paint-order="fill stroke markers" d=" M 0 0 L 133 0 L 133 63 L 0 63 L 0 0 Z Z" stroke-miterlimit="10" stroke-width="1.5" stroke-dasharray=""/></g><g transform="matrix(1,0,0,1,11.198158264160156,18.5)"><text fill="#000000" stroke="none" font-family="Open Sans" font-size="10pt" font-style="normal" font-weight="normal" text-decoration="normal" x="55.301841735839844" y="10.4" text-anchor="middle" dominant-baseline="alphabetic">Should the driver </text><text fill="#000000" stroke="none" font-family="Open Sans" font-size="10pt" font-style="normal" font-weight="normal" text-decoration="normal" x="55.301841735839844" y="23.400000000000002" text-anchor="middle" dominant-baseline="alphabetic">  be suspended?   </text></g></g><g id="_A1C54C5E-7097-4CBF-8DAC-7C57B3DB89BE#_800A3BBB-90A3-4D9D-BA5E-A311DED0134F"><g><path fill="none" stroke="#000000" paint-order="fill stroke markers" d=" M 758.1785714285714 350 L 758.8214285714286 260" stroke-miterlimit="10" stroke-dasharray=""/></g><g transform="matrix(-0.007142674934085631,0.9999744907720326,-0.9999744907720326,-0.007142674934085631,758.1785714285714,350)"/><g transform="matrix(0.9999744907720326,0.00714267493408547,-0.00714267493408547,0.9999744907720326,753.8215561175684,259.9642866253296)"><path fill="#000000" stroke="#000000" paint-order="fill stroke markers" d=" M 10 15 L 0 15 L 5 0 Z" stroke-miterlimit="10" stroke-dasharray=""/></g><g transform="matrix(1,0,0,1,768.1783163362918,304.92857325065916)"/></g><g id="_A1C54C5E-7097-4CBF-8DAC-7C57B3DB89BE#_AEC4AA5F-50C3-4FED-A0C2-261F90290731"><g><path fill="none" stroke="#000000" paint-order="fill stroke markers" d=" M 726.1161825726141 210 L 641.9336099585062 146" stroke-miterlimit="10" stroke-dasharray=""/></g><g transform="matrix(0.7960654015875313,0.6052106049924131,-0.6052106049924131,0.7960654015875313,726.1161825726141,210)"/><g transform="matrix(0.6052106049924129,-0.7960654015875314,0.7960654015875314,0.6052106049924129,638.9075569335441,149.98032700793766)"><path fill="#000000" stroke="#000000" paint-order="fill stroke markers" d=" M 10 15 L 0 15 L 5 0 Z" stroke-miterlimit="10" stroke-dasharray=""/></g><g transform="matrix(1,0,0,1,647.9857160084302,170.03934598412468)"/></g><g id="_A1C54C5E-7097-4CBF-8DAC-7C57B3DB89BE#_982211B1-5246-49CD-BE85-3211F71253CF"><g><path fill="none" stroke="#000000" paint-order="fill stroke markers" d=" M 436.82907662082516 344 L 578.0353634577604 146" stroke-miterlimit="10" stroke-dasharray=""/></g><g transform="matrix(-0.5806328018261452,0.8141655540757791,-0.8141655540757791,-0.5806328018261452,436.82907662082516,344)"/><g transform="matrix(0.8141655540757792,0.5806328018261451,-0.5806328018261451,0.8141655540757792,573.9645356873815,143.09683599086927)"><path fill="#000000" stroke="#000000" paint-order="fill stroke markers" d=" M 10 15 L 0 15 L 5 0 Z" stroke-miterlimit="10" stroke-dasharray=""/></g><g transform="matrix(1,0,0,1,457.510595397436,239.19367198173853)"/></g><g transform="matrix(1,0,0,1,708,350)"/><g transform="matrix(1,0,0,1,709,210)"/><g transform="matrix(1,0,0,1,369,344)"/><g transform="matrix(1,0,0,1,534,83)"/></g></g></svg>