<?xml version="1.0" encoding="UTF-8" standalone="no"?>
<svg
   xmlns:dc="http://purl.org/dc/elements/1.1/"
   xmlns:cc="http://creativecommons.org/ns#"
   xmlns:rdf="http://www.w3.org/1999/02/22-rdf-syntax-ns#"
   xmlns:svg="http://www.w3.org/2000/svg"
   xmlns="http://www.w3.org/2000/svg"
   enable-background="new 0 0 225 35"
   viewBox="0 0 225 35"
   width="225"
   height="35"
   version="1.1"
   id="svg39">
  <metadata
     id="metadata45">
    <rdf:RDF>
      <cc:Work
         rdf:about="">
        <dc:format>image/svg+xml</dc:format>
        <dc:type
           rdf:resource="http://purl.org/dc/dcmitype/StillImage" />
        <dc:title></dc:title>
      </cc:Work>
    </rdf:RDF>
  </metadata>
  <defs
     id="defs43" />
  <linearGradient
     id="a"
     gradientUnits="userSpaceOnUse"
     x1="17.4799"
     x2="17.4799"
     y1="2.0369"
     y2="34.1113">
    <stop
       offset="0"
       stop-color="#00f1ff"
       id="stop10" />
    <stop
       offset="1"
       stop-color="#0076c1"
       id="stop12" />
  </linearGradient>
  <path
     d="m12.3 26.7-5.2 1.2-7-9.9 17-16.6.4-.4.4.4 17 16.6-7 9.9-5.2-1.2-5.2 7.3zm5.2 5.6 4.2-5.8-1.3-.3-2.8 4.1-3-4.1-1.3.3zm.1-3.8 2-3-2.1-20.3-2.1 20.3zm9.8-1.8 6.1-8.6-10.3-10.1 5.5 6.7-3.1 4.3 1 2.3-3.2 4.5zm-19.9 0 4.1-.9-3.2-4.5 1-2.3-3.1-4.3 5.4-6.7-10.3 10.1zm5.2-1.2 1.3-.3-3.9-5.3-.5 1.2zm9.6 0 3.1-4.4-.5-1.2-3.9 5.3zm-1.8-1.4 3.9-5.3-5.8-13.2zm-6.1 0 2-18.5-5.8 13.3zm-4.5-6.2 5.8-13.1-8.1 9.9zm15.2 0 2.3-3.2-8.1-9.9z"
     fill="url(#a)"
     id="path15" />
  <text
     xml:space="preserve"
     style="font-size:21.33330000000000126px;line-height:1.25;font-family:sans-serif;word-spacing:0px;fill:#ffffff;"
     x="40"
     y="24"
     id="text880"><tspan
       id="tspan878"
       x="40"
       y="24"
       style="font-style:normal;font-variant:normal;font-weight:500;font-stretch:normal;font-family:'Red Hat Display';-inkscape-font-specification:'Red Hat Display Medium';letter-spacing:3px;fill:#ffffff;">RED HAT BANK</tspan></text>
</svg>
