<?xml version="1.0" encoding="UTF-8" standalone="no"?>
<svg
   xmlns:dc="http://purl.org/dc/elements/1.1/"
   xmlns:cc="http://creativecommons.org/ns#"
   xmlns:rdf="http://www.w3.org/1999/02/22-rdf-syntax-ns#"
   xmlns:svg="http://www.w3.org/2000/svg"
   xmlns="http://www.w3.org/2000/svg"
   xmlns:sodipodi="http://sodipodi.sourceforge.net/DTD/sodipodi-0.dtd"
   xmlns:inkscape="http://www.inkscape.org/namespaces/inkscape"
   inkscape:version="1.0rc1 (09960d6, 2020-04-09)"
   sodipodi:docname="RedHatDemoBank-logo.svg"
   id="svg39"
   version="1.1"
   height="35"
   width="225"
   viewBox="0 0 225 35"
   enable-background="new 0 0 225 35">
  <sodipodi:namedview
     inkscape:current-layer="svg39"
     inkscape:window-maximized="0"
     inkscape:window-y="83"
     inkscape:window-x="82"
     inkscape:cy="25.293984"
     inkscape:cx="116.70465"
     inkscape:zoom="4.8755556"
     showgrid="false"
     id="namedview100"
     inkscape:window-height="605"
     inkscape:window-width="1531"
     inkscape:pageshadow="2"
     inkscape:pageopacity="0"
     guidetolerance="10"
     gridtolerance="10"
     objecttolerance="10"
     borderopacity="1"
     bordercolor="#666666"
     pagecolor="#ffffff" />
  <metadata
     id="metadata45">
    <rdf:RDF>
      <cc:Work
         rdf:about="">
        <dc:format>image/svg+xml</dc:format>
        <dc:type
           rdf:resource="http://purl.org/dc/dcmitype/StillImage" />
        <dc:title />
      </cc:Work>
    </rdf:RDF>
  </metadata>
  <defs
     id="defs43">
    <style
       id="style104">.cls-1{fill:#e00;}</style>
  </defs>
  <linearGradient
     y2="34.1113"
     y1="2.0369"
     x2="17.4799"
     x1="17.4799"
     gradientUnits="userSpaceOnUse"
     id="a">
    <stop
       id="stop10"
       stop-color="#00f1ff"
       offset="0" />
    <stop
       id="stop12"
       stop-color="#0076c1"
       offset="1" />
  </linearGradient>
  <text
     transform="matrix(1.0729834,0.00146045,-0.00269472,0.93197718,0,0)"
     id="text880"
     y="27.579201"
     x="42.092163"
     style="font-style:normal;font-variant:normal;font-weight:normal;font-stretch:normal;font-size:22.53569999999999851px;line-height:1.25;font-family:sans-serif;-inkscape-font-specification:'sans-serif, Normal';font-variant-ligatures:normal;font-variant-caps:normal;font-variant-numeric:normal;font-variant-east-asian:normal;word-spacing:0px;fill:#ffffff;fill-opacity:1;stroke-width:1.07298;"
     xml:space="preserve"><tspan
       style="stroke-width:1.07298;fill:#ffffff;"
       y="27.579201"
       x="42.092163"
       id="tspan1044"
       sodipodi:role="line">Showcase App</tspan></text>
  <g
     transform="matrix(0.18283072,0,0,0.17009557,-64.35092,-46.958709)"
     id="g122">
    <path
       inkscape:connector-curvature="0"
       class="cls-1"
       d="m 493.5163,385.6611 c 12.5,0 30.61,-2.58 30.61,-17.46 a 14,14 0 0 0 -0.31,-3.42 l -7.45,-32.36 c -1.73,-7.12 -3.23,-10.35 -15.74,-16.6 -9.7,-4.97 -30.83,-13.16 -37.08,-13.16 -5.83,0 -7.54,7.54 -14.44,7.54 -6.68,0 -11.64,-5.6 -17.89,-5.6 -6,0 -9.92,4.09 -12.94,12.5 0,0 -8.4,23.72 -9.48,27.16 a 6.12,6.12 0 0 0 -0.22,1.94 c 0,9.22 36.29,39.46 84.94,39.46 m 32.55,-11.42 c 1.72,8.19 1.72,9.05 1.72,10.13 0,14 -15.73,21.77 -36.43,21.77 -46.78,-0.01 -87.74,-27.38 -87.74,-45.48 a 18.45,18.45 0 0 1 1.51,-7.33 c -16.81,0.85 -38.58,3.87 -38.58,23.05 0,31.48 74.58,70.28 133.65,70.28 45.27,0 56.69,-20.48 56.69,-36.65 0,-12.72 -11,-27.16 -30.82,-35.78"
       id="path110" />
  </g>
</svg>
